<svg xmlns="http://www.w3.org/2000/svg" viewBox="0 0 1000 1000" role="img" aria-label="MiMoCode icon">
<rect width="1000" height="1000" rx="180" fill="#070709"/>
<rect x="100" y="200" width="100" height="100" fill="#ff913e"/>
<rect x="200" y="200" width="100" height="100" fill="#ff913e"/>
<rect x="500" y="200" width="100" height="100" fill="#ff7a2d"/>
<rect x="700" y="200" width="100" height="100" fill="#ff7a2d"/>
<rect x="800" y="200" width="100" height="100" fill="#ff7a2d"/>
<rect x="100" y="300" width="100" height="100" fill="#ff913e"/>
<rect x="200" y="300" width="100" height="100" fill="#ff913e"/>
<rect x="500" y="300" width="100" height="100" fill="#ff7a2d"/>
<rect x="700" y="300" width="100" height="100" fill="#ff7a2d"/>
<rect x="800" y="300" width="100" height="100" fill="#ff7a2d"/>
<rect x="100" y="400" width="100" height="100" fill="#ff913e"/>
<rect x="200" y="400" width="100" height="100" fill="#ff913e"/>
<rect x="500" y="400" width="100" height="100" fill="#ff7a2d"/>
<rect x="700" y="400" width="100" height="100" fill="#ff7a2d"/>
<rect x="800" y="400" width="100" height="100" fill="#ff7a2d"/>
<rect x="100" y="500" width="100" height="100" fill="#ff913e"/>
<rect x="200" y="500" width="100" height="100" fill="#ff913e"/>
<rect x="700" y="500" width="100" height="100" fill="#ff7a2d"/>
<rect x="800" y="500" width="100" height="100" fill="#ff7a2d"/>
<rect x="100" y="600" width="100" height="100" fill="#e2531c"/>
<rect x="200" y="600" width="100" height="100" fill="#e2531c"/>
<rect x="700" y="600" width="100" height="100" fill="#e2531c"/>
<rect x="800" y="600" width="100" height="100" fill="#e2531c"/>
<rect x="100" y="700" width="100" height="100" fill="#e2531c"/>
<rect x="200" y="700" width="100" height="100" fill="#e2531c"/>
<rect x="700" y="700" width="100" height="100" fill="#e2531c"/>
<rect x="800" y="700" width="100" height="100" fill="#e2531c"/>
</svg>